<?xml version="1.0" encoding="iso-8859-1"?>
<svg version="1.1" xmlns="http://www.w3.org/2000/svg" xmlns:xlink="http://www.w3.org/1999/xlink" x="0px" y="0px" width="979.1px" height="979.1px" viewBox="0 0 979.1 979.1" style="enable-background:new 0 0 979.1 979.1;" xml:space="preserve">
	<g fill="#E6007E">
		<path d="M489.589,979.1c62.401,0,113.601-48.3,118.201-109.6h-236.4C375.99,930.8,427.089,979.1,489.589,979.1z" />
		<path d="M867.09,759.2c-75.8-83-81-209.301-81.3-234.301V263c0-145.3-117.8-263-263-263h-66.6c-145.3,0-263,117.8-263,263v267.5
		c-1.1,34.5-10,150.7-81.2,228.7c-17.6,19.3-4,50.199,22.1,50.199h248.5H596.49h248.5C871.19,809.5,884.69,778.5,867.09,759.2z" />
	</g>
</svg>